<svg width="52" height="73" viewBox="0 0 52 73" fill="none" xmlns="http://www.w3.org/2000/svg">
<g filter="url(#filter0_d)">
<path d="M41.91 30.438V41.307C41.91 41.307 42.015 44.042 39.085 44.042C36.016 44.042 35.96 41.307 35.96 41.307V34.891C35.96 34.651 35.624 32.982 33.641 32.982C31.016 32.982 30.971 34.859 30.971 34.859V54.08C30.971 54.08 31 55.943 28.507 55.943C26 55.943 26 53.96 26 53.96V40.016C26 40.016 26 37.071 22.195 37.071C18.141 37.071 18.228 40.196 18.228 40.196V43.924C18.228 43.924 18.107 46.869 13.54 46.869C8.973 46.869 8.912 42.36 8.912 42.36V29.938C7.168 28.976 4 26.671 4 26.671V56.003C4 56.003 6.988 65 26 65C45.012 65 48 56.305 48 56.305V26.671C45.062 29.5 41.91 30.438 41.91 30.438Z" fill="white"/>
<path fill-rule="evenodd" clip-rule="evenodd" d="M26 0C5.688 0 4 19.875 4 19.875V22.937C12.438 29.188 26 29 26 29C26 29 39.562 29.188 48 22.938V19.876C48 19.875 46.312 0 26 0ZM26 25C14.25 25 11.688 22.625 11.688 22.625C17.938 19.75 26 19.875 26 19.875C26 19.875 34.062 19.75 40.312 22.625C40.312 22.625 37.75 25 26 25ZM8.312 15.563C8.312 15.563 16.438 12.625 26 12.625C35.562 12.625 43.688 15.562 43.688 15.562C39.125 2.624 26 3.062 26 3.062C26 3.062 12.875 2.625 8.312 15.563Z" fill="white"/>
</g>
<defs>
<filter id="filter0_d" x="0" y="0" width="52" height="73" filterUnits="userSpaceOnUse" color-interpolation-filters="sRGB">
<feFlood flood-opacity="0" result="BackgroundImageFix"/>
<feColorMatrix in="SourceAlpha" type="matrix" values="0 0 0 0 0 0 0 0 0 0 0 0 0 0 0 0 0 0 127 0"/>
<feOffset dy="4"/>
<feGaussianBlur stdDeviation="2"/>
<feColorMatrix type="matrix" values="0 0 0 0 0 0 0 0 0 0 0 0 0 0 0 0 0 0 0.25 0"/>
<feBlend mode="normal" in2="BackgroundImageFix" result="effect1_dropShadow"/>
<feBlend mode="normal" in="SourceGraphic" in2="effect1_dropShadow" result="shape"/>
</filter>
</defs>
</svg>
